# xmcd
#
# Track frame offsets:
#	150
#	12677
#	28260
#	40872
#	51950
#	66482
#	85165
#	99177
#	117642
#	131062
#	142857
#	159717
#
# Disc length: 2285
#
# Revision: 2
# Processed by: cddbd v1.5.1PL0 Copyright (c) Steve Scherf et al.
# Submitted via: Audio-CD-Archiv 2.10.441
# Normalized: r1:DSETVAR1
#
DISCID=ab08eb0c
DTITLE=Various Artist - Yellow Rose Of Texas
DYEAR=1900
DGENRE=country
TTITLE0=GreyHounds - Ring Of Fire
TTITLE1=Harry Bonanza and Band - When The Right Thing Does You Wrong
TTITLE2=Tee Meroney - Sinful Cinderella
TTITLE3=Dave Dudley - Mama's Town
TTITLE4=Greyhounds - On The Road Again
TTITLE5=Harry Bonanza and Band - Silver And Gold
TTITLE6=Greyhounds - Greyhounds Keep Rollin
TTITLE7=Billy White - Remember Me
TTITLE8=Harry Bonanza and Band - Steak And A Gibson For A Dollar Forty-Nine
TTITLE9=Dave Dudley - Yellow Rose Of Texas
TTITLE10=Billy White - I Need Your Love
TTITLE11=Dave Dudley - Wanderin' Truck Drivin' Man
EXTD=
EXTT0=
EXTT1=
EXTT2=
EXTT3=
EXTT4=
EXTT5=
EXTT6=
EXTT7=
EXTT8=
EXTT9=
EXTT10=
EXTT11=
PLAYORDER=
